# xmcd
#
# Track frame offsets: 
#        150
#        30102
#        50077
#        65337
#        83680
#        96617
#        119712
#        135447
#        148533
#
# Disc length: 2258 seconds
#
# Revision: 0
# Processed by: cddbd v1.5.2PL0 Copyright (c) Steve Scherf et al.
# Submitted via: ExactAudioCopy v1.1
#
DISCID=7a08d009
DTITLE=Francesco De Gregori - Terra Di Nessuno
DYEAR=1987
DGENRE=Pop - Musica d'autore
TTITLE0=Il canto delle sirene
TTITLE1=Pilota di guerra
TTITLE2=Capatàz
TTITLE3=Pane e castagne
TTITLE4=Nero
TTITLE5=Mimì sarà
TTITLE6=Spalle larghe
TTITLE7=I matti
TTITLE8=Vecchia valigia
EXTD=
EXTT0=
EXTT1=
EXTT2=
EXTT3=
EXTT4=
EXTT5=
EXTT6=
EXTT7=
EXTT8=
PLAYORDER=
